<?xml version="1.0" encoding="utf-8"?>
<!-- Generator: Adobe Illustrator 16.0.0, SVG Export Plug-In . SVG Version: 6.00 Build 0)  -->
<!DOCTYPE svg PUBLIC "-//W3C//DTD SVG 1.1//EN" "http://www.w3.org/Graphics/SVG/1.1/DTD/svg11.dtd">
<svg version="1.1" id="Layer_1" xmlns="http://www.w3.org/2000/svg" xmlns:xlink="http://www.w3.org/1999/xlink" x="0px" y="0px"
	 width="44px" height="44px" viewBox="0 0 44 44" enable-background="new 0 0 44 44" xml:space="preserve">
<g>
	<path d="M36.692,32.415c-0.378-1.873-0.772-3.744-1.15-5.616c-0.295-1.46-0.576-2.922-0.865-4.382
		c-0.347-1.744-0.729-3.482-1.027-5.234c-0.137-0.798-0.591-1.225-1.497-1.224c-6.452,0.005-12.905,0.004-19.358,0.005
		c-0.385,0-0.773-0.032-1.154,0.004c-0.666,0.064-1.039,0.245-1.205,0.827c-0.162,0.568-0.264,1.154-0.379,1.734
		c-0.158,0.8-0.304,1.602-0.458,2.403c-0.2,1.049-0.401,2.097-0.605,3.146c-0.07,0.361-0.146,0.721-0.22,1.08
		c-0.21,1.021-0.427,2.042-0.63,3.064c-0.141,0.71-0.253,1.426-0.398,2.135c-0.2,0.982-0.425,1.96-0.625,2.943
		c-0.171,0.837-0.313,1.679-0.48,2.517c-0.175,0.874,0.164,1.803,1.375,1.789c4.66-0.047,9.32-0.019,13.981-0.019
		c0-0.001,0-0.002,0-0.004c4.726,0,9.453,0.002,14.179-0.003c0.181,0,0.376-0.022,0.538-0.094c0.531-0.234,0.788-0.831,0.657-1.554
		C37.157,34.758,36.929,33.585,36.692,32.415z M16.593,20.789c-1.005-0.003-1.782-0.79-1.764-1.816
		c0.021-1.183,0.851-1.768,1.738-1.779c0.979-0.013,1.823,0.695,1.804,1.822C18.353,20.021,17.588,20.793,16.593,20.789z
		 M27.375,20.793c-0.99-0.018-1.75-0.781-1.752-1.796c-0.027-1.077,0.791-1.803,1.78-1.805c0.894-0.002,1.747,0.609,1.76,1.803
		C29.175,20.14,28.219,20.808,27.375,20.793z"/>
	<path d="M17.479,14.743c0.5-0.068,0.855-0.537,0.894-1.137c0.045-0.714,0.072-1.433,0.176-2.14
		c0.137-0.923,0.477-1.768,1.365-2.229c0.638-0.333,1.339-0.452,2.029-0.405c0.778-0.033,1.501,0.071,2.163,0.431
		c0.883,0.481,1.203,1.33,1.338,2.248c0.108,0.733,0.12,1.479,0.183,2.219c0.048,0.583,0.476,0.977,1.051,1.034
		c0.866,0.085,1.294-0.531,1.337-1.305c0.025-0.443-0.043-0.896-0.108-1.339c-0.104-0.714-0.165-1.449-0.381-2.132
		c-0.499-1.579-1.543-2.692-3.136-3.214c-1.308-0.427-2.644-0.487-4.001-0.213C18.416,6.96,17.1,8.088,16.44,9.989
		c-0.374,1.078-0.395,2.204-0.463,3.322c-0.012,0.201,0.045,0.414,0.105,0.609C16.294,14.607,16.712,14.847,17.479,14.743z"/>
</g>
</svg>
