<?xml version="1.0" encoding="utf-8"?>
<!-- Generator: Adobe Illustrator 16.0.0, SVG Export Plug-In . SVG Version: 6.00 Build 0)  -->
<!DOCTYPE svg PUBLIC "-//W3C//DTD SVG 1.1//EN" "http://www.w3.org/Graphics/SVG/1.1/DTD/svg11.dtd">
<svg version="1.1" id="Layer_1" xmlns="http://www.w3.org/2000/svg" xmlns:xlink="http://www.w3.org/1999/xlink" x="0px" y="0px"
	 width="44px" height="44px" viewBox="0 0 44 44" enable-background="new 0 0 44 44" xml:space="preserve">
<g opacity="0.5">
	<path fill="#FFFFFF" d="M22.001,42.416C10.742,42.416,1.583,33.259,1.583,22c0-11.258,9.159-20.416,20.418-20.416
		c11.258,0,20.416,9.157,20.416,20.416S33.259,42.416,22.001,42.416z M22.001,2.296c-10.865,0-19.707,8.84-19.707,19.705
		c0,10.864,8.84,19.705,19.707,19.705c10.862,0,19.705-8.841,19.705-19.705C41.706,11.136,32.863,2.296,22.001,2.296z"/>
</g>
<path fill="#FFFFFF" d="M25.173,19.593h-2.161v-1.417c0-0.533,0.354-0.657,0.604-0.657c0.246,0,1.523,0,1.523,0v-2.341l-2.101-0.008
	c-2.332,0-2.863,1.746-2.863,2.863v1.56h-1.348v2.413h1.348c0,3.094,0,6.824,0,6.824h2.837c0,0,0-3.768,0-6.824h1.913L25.173,19.593
	z"/>
</svg>
