<?xml version="1.0" encoding="utf-8"?>
<!-- Generator: Adobe Illustrator 16.0.0, SVG Export Plug-In . SVG Version: 6.00 Build 0)  -->
<!DOCTYPE svg PUBLIC "-//W3C//DTD SVG 1.1//EN" "http://www.w3.org/Graphics/SVG/1.1/DTD/svg11.dtd">
<svg version="1.1" id="Layer_1" xmlns="http://www.w3.org/2000/svg" xmlns:xlink="http://www.w3.org/1999/xlink" x="0px" y="0px"
	 width="44px" height="44px" viewBox="0 0 44 44" enable-background="new 0 0 44 44" xml:space="preserve">
<g opacity="0.5">
	<path fill="#FFFFFF" d="M22.001,42.416C10.742,42.416,1.583,33.259,1.583,22c0-11.258,9.159-20.416,20.418-20.416
		c11.258,0,20.416,9.157,20.416,20.416S33.259,42.416,22.001,42.416z M22.001,2.296c-10.865,0-19.707,8.84-19.707,19.705
		c0,10.864,8.84,19.705,19.707,19.705c10.862,0,19.705-8.841,19.705-19.705C41.706,11.136,32.863,2.296,22.001,2.296z"/>
</g>
<path fill="#FFFFFF" d="M25.539,16.231h-7.078c-1.23,0-2.23,1-2.23,2.229v2.356v4.723c0,1.229,1,2.23,2.23,2.23h7.078
	c1.229,0,2.23-1.002,2.23-2.23v-4.724V18.46C27.77,17.23,26.77,16.231,25.539,16.231z M26.18,17.561h0.256v0.253v1.703l-1.951,0.006
	l-0.006-1.957L26.18,17.561z M20.353,20.815c0.37-0.511,0.97-0.846,1.647-0.846c0.678,0,1.275,0.334,1.646,0.846
	c0.24,0.333,0.385,0.743,0.385,1.185c0,1.119-0.911,2.03-2.031,2.03s-2.03-0.911-2.03-2.03
	C19.97,21.559,20.113,21.149,20.353,20.815z M26.646,25.539c0,0.609-0.498,1.105-1.106,1.105h-7.078
	c-0.61,0-1.106-0.496-1.106-1.105v-4.724h1.723C18.93,21.181,18.847,21.58,18.847,22c0,1.739,1.415,3.154,3.154,3.154
	c1.74,0,3.155-1.415,3.155-3.154c0-0.419-0.084-0.818-0.233-1.185h1.724V25.539L26.646,25.539z"/>
</svg>
