<?xml version="1.0" encoding="utf-8"?>
<!-- Generator: Adobe Illustrator 16.0.0, SVG Export Plug-In . SVG Version: 6.00 Build 0)  -->
<!DOCTYPE svg PUBLIC "-//W3C//DTD SVG 1.1//EN" "http://www.w3.org/Graphics/SVG/1.1/DTD/svg11.dtd">
<svg version="1.1" id="Layer_1" xmlns="http://www.w3.org/2000/svg" xmlns:xlink="http://www.w3.org/1999/xlink" x="0px" y="0px"
	 width="381px" height="48px" viewBox="0 -32.5 381 48" enable-background="new 0 -32.5 381 48" xml:space="preserve">
<g>
	<g>
		<g>
			<path fill="#000202" d="M4.962-26.483h1.139v8.89c0.984-0.984,2.012-1.675,3.091-2.08c1.078-0.397,2.088-0.604,3.029-0.604
				c1.174,0,2.278,0.225,3.314,0.656c1.035,0.44,1.941,1.044,2.714,1.812c0.772,0.777,1.386,1.683,1.83,2.719
				s0.669,2.141,0.669,3.314s-0.225,2.278-0.669,3.314c-0.444,1.036-1.058,1.941-1.83,2.719C17.477-4.975,16.57-4.37,15.535-3.93
				c-1.036,0.432-2.141,0.655-3.314,0.655c-0.941,0-1.951-0.198-3.029-0.586C8.112-4.258,7.085-4.939,6.101-5.924v2.322H4.962
				V-26.483z M6.101-7.331c0.683,0.786,1.536,1.476,2.585,2.08c1.049,0.596,2.223,0.898,3.535,0.898c1.044,0,2.011-0.19,2.908-0.57
				c0.889-0.379,1.666-0.914,2.322-1.588C18.098-7.192,18.616-7.969,19-8.867c0.38-0.898,0.574-1.865,0.574-2.909
				c0-1.044-0.194-2.011-0.574-2.909c-0.384-0.898-0.902-1.674-1.549-2.356c-0.656-0.673-1.434-1.2-2.322-1.58
				c-0.897-0.388-1.864-0.578-2.908-0.578c-0.656,0-1.277,0.086-1.865,0.259c-0.591,0.182-1.147,0.406-1.67,0.69
				c-0.521,0.285-1.005,0.613-1.437,0.984c-0.44,0.371-0.82,0.742-1.148,1.113V-7.331z"/>
			<path fill="#000202" d="M12.221-2.868c-0.988,0-2.055-0.207-3.168-0.613c-0.876-0.319-1.727-0.819-2.542-1.51v1.804H4.552v-23.71
				h1.959v8.373c0.815-0.691,1.666-1.208,2.538-1.528c2.52-0.941,4.687-0.768,6.646,0.061c1.083,0.449,2.037,1.087,2.844,1.898
				c0.812,0.812,1.454,1.761,1.916,2.84c0.466,1.087,0.704,2.253,0.704,3.479s-0.238,2.391-0.704,3.478
				c-0.462,1.079-1.104,2.029-1.916,2.839c-0.807,0.812-1.761,1.45-2.844,1.899C14.607-3.102,13.441-2.868,12.221-2.868z
				 M5.691-6.907l0.699,0.699C7.326-5.276,8.319-4.62,9.329-4.249c2.305,0.837,4.272,0.69,6.046-0.061
				c0.984-0.414,1.855-0.992,2.585-1.727c0.733-0.733,1.32-1.605,1.743-2.581c0.424-0.984,0.635-2.045,0.635-3.159
				s-0.211-2.175-0.635-3.159c-0.423-0.975-1.01-1.847-1.743-2.581c-0.729-0.734-1.601-1.312-2.585-1.726
				c-1.766-0.742-3.716-0.906-6.042-0.043c-1.01,0.371-1.998,1.036-2.942,1.977l-0.699,0.699v-9.468h-0.32v22.069h0.32V-6.907z
				 M12.221-3.947c-1.377,0-2.633-0.319-3.737-0.949C7.417-5.51,6.516-6.234,5.795-7.063L5.691-7.175v-9.131l0.104-0.121
				c0.35-0.388,0.746-0.777,1.19-1.148c0.432-0.379,0.941-0.725,1.507-1.027c0.535-0.293,1.126-0.544,1.747-0.725
				c0.622-0.181,1.29-0.276,1.981-0.276c1.096,0,2.127,0.208,3.068,0.604c0.945,0.406,1.77,0.967,2.455,1.675
				c0.687,0.716,1.234,1.554,1.631,2.485c0.406,0.941,0.609,1.977,0.609,3.064c0,1.087-0.203,2.123-0.609,3.072
				c-0.396,0.924-0.944,1.761-1.627,2.469c-0.694,0.717-1.519,1.286-2.459,1.683C14.344-4.146,13.312-3.947,12.221-3.947z
				 M6.511-7.486C7.154-6.77,7.952-6.14,8.889-5.604c0.992,0.562,2.084,0.838,3.332,0.838c0.979,0,1.907-0.182,2.749-0.535
				c0.837-0.354,1.57-0.863,2.188-1.494c0.613-0.647,1.109-1.397,1.468-2.227c0.357-0.854,0.539-1.778,0.539-2.753
				c0-0.976-0.182-1.899-0.539-2.745c-0.358-0.837-0.854-1.588-1.472-2.235c-0.608-0.63-1.343-1.13-2.184-1.493
				c-0.842-0.354-1.766-0.535-2.749-0.535c-0.613,0-1.204,0.078-1.748,0.242c-0.565,0.164-1.101,0.388-1.593,0.656
				c-0.513,0.276-0.976,0.595-1.363,0.932c-0.371,0.311-0.708,0.63-1.006,0.958V-7.486z"/>
		</g>
		<g>
			<path fill="#000202" d="M25.426-11.223c0.061,0.984,0.298,1.89,0.699,2.719c0.406,0.829,0.932,1.545,1.588,2.175
				c0.656,0.612,1.411,1.104,2.271,1.45c0.862,0.354,1.795,0.526,2.796,0.526c1.441,0,2.715-0.285,3.824-0.872
				c1.113-0.569,2.02-1.45,2.719-2.624h1.238c-0.738,1.459-1.804,2.59-3.189,3.384c-1.381,0.794-2.913,1.19-4.592,1.19
				c-1.174,0-2.283-0.224-3.314-0.673C28.426-4.388,27.527-5,26.764-5.76c-0.76-0.769-1.368-1.666-1.812-2.701
				c-0.449-1.036-0.673-2.141-0.673-3.314s0.224-2.279,0.673-3.314c0.444-1.036,1.053-1.934,1.812-2.702
				c0.764-0.759,1.662-1.372,2.701-1.812c1.031-0.449,2.141-0.673,3.314-0.673c1.222,0,2.348,0.233,3.384,0.69
				c1.036,0.458,1.934,1.088,2.697,1.891c0.764,0.811,1.354,1.769,1.782,2.865c0.423,1.096,0.639,2.305,0.639,3.608H25.426z
				 M40.104-12.302c-0.065-0.976-0.299-1.891-0.687-2.728c-0.393-0.837-0.915-1.571-1.571-2.192c-0.651-0.613-1.406-1.105-2.27-1.45
				c-0.863-0.354-1.795-0.526-2.797-0.526c-1.001,0-1.934,0.173-2.796,0.526c-0.859,0.345-1.614,0.837-2.271,1.45
				c-0.656,0.621-1.182,1.355-1.588,2.192c-0.401,0.837-0.639,1.752-0.699,2.728H40.104z"/>
			<path fill="#000202" d="M32.779-2.868c-1.234,0-2.403-0.233-3.479-0.699c-1.065-0.457-2.02-1.096-2.826-1.898
				c-0.803-0.812-1.441-1.77-1.898-2.832c-0.471-1.079-0.708-2.252-0.708-3.478s0.237-2.399,0.708-3.479
				c0.457-1.07,1.096-2.02,1.898-2.822s1.756-1.45,2.831-1.907c2.171-0.95,4.89-0.924,7.021,0.017
				c1.074,0.475,2.028,1.148,2.831,1.994c0.789,0.837,1.42,1.847,1.864,2.995s0.669,2.408,0.669,3.754v0.415H25.875
				c0.09,0.75,0.298,1.467,0.617,2.123c0.389,0.785,0.88,1.458,1.502,2.054c0.621,0.588,1.342,1.054,2.145,1.373
				c0.803,0.328,1.695,0.492,2.641,0.492c1.373,0,2.598-0.276,3.634-0.82c1.04-0.535,1.899-1.364,2.555-2.469l0.121-0.207h2.136
				l-0.297,0.596c-0.773,1.527-1.903,2.719-3.354,3.556C36.137-3.282,34.523-2.868,32.779-2.868z M32.779-19.863
				c-1.122,0-2.184,0.207-3.15,0.63c-0.979,0.423-1.847,1.001-2.576,1.735c-0.725,0.734-1.308,1.597-1.727,2.563
				c-0.422,0.984-0.639,2.046-0.639,3.159s0.217,2.175,0.639,3.15c0.419,0.975,0.997,1.838,1.727,2.581
				c0.734,0.725,1.597,1.303,2.572,1.726c0.971,0.423,2.032,0.63,3.154,0.63c1.602,0,3.077-0.38,4.389-1.131
				c1.114-0.646,2.021-1.519,2.697-2.624h-0.314c-0.721,1.139-1.648,2.011-2.762,2.581c-1.152,0.613-2.499,0.915-4.01,0.915
				c-1.053,0-2.045-0.181-2.951-0.552c-0.894-0.363-1.701-0.881-2.396-1.537c-0.699-0.664-1.247-1.415-1.675-2.287
				c-0.427-0.889-0.678-1.855-0.742-2.874l-0.025-0.432h15.872c-0.038-1.096-0.241-2.114-0.604-3.055
				c-0.405-1.044-0.975-1.968-1.695-2.728c-0.729-0.768-1.593-1.373-2.563-1.804C35.02-19.647,33.937-19.863,32.779-19.863z
				 M40.539-11.888H24.99l0.025-0.44c0.064-1.019,0.315-1.985,0.742-2.874c0.424-0.889,0.988-1.666,1.675-2.313
				c0.694-0.656,1.502-1.174,2.396-1.537c1.812-0.733,4.091-0.733,5.903,0c0.897,0.363,1.704,0.881,2.396,1.537
				c0.69,0.647,1.247,1.433,1.661,2.313c0.414,0.889,0.656,1.855,0.725,2.874L40.539-11.888z M25.875-12.708h13.779
				c-0.095-0.76-0.298-1.476-0.608-2.149c-0.367-0.785-0.868-1.484-1.48-2.063c-0.617-0.587-1.338-1.053-2.145-1.372
				c-1.605-0.656-3.677-0.656-5.282,0c-0.803,0.319-1.523,0.785-2.145,1.372c-0.613,0.579-1.118,1.278-1.502,2.072
				C26.173-14.184,25.965-13.467,25.875-12.708z"/>
		</g>
	</g>
	<g>
		<path fill="#000202" d="M63.52-27.009L78.883-8.297L94.29-27.009V9.75h-1.873v-31.736L78.883-5.51L65.401-21.986V9.75H63.52
			V-27.009z"/>
	</g>
	<g>
		<path fill="#000202" d="M118.37-27.51l16.731,37.26h-1.929L128.46-0.642h-19.821l-4.51,10.392h-1.977L118.37-27.51z M127.7-2.419
			l-9.33-20.732l-8.968,20.732H127.7z"/>
	</g>
	<g>
		<path fill="#000202" d="M173.626-0.642c-0.607,1.588-1.449,3.056-2.533,4.402c-1.083,1.354-2.334,2.528-3.75,3.521
			c-1.42,1.001-2.978,1.786-4.665,2.364c-1.691,0.57-3.448,0.863-5.273,0.863c-2.603,0-5.027-0.492-7.271-1.476
			c-2.249-0.976-4.199-2.305-5.856-3.979c-1.652-1.665-2.965-3.634-3.932-5.877c-0.958-2.253-1.441-4.644-1.441-7.173
			c0-2.538,0.492-4.928,1.468-7.172c0.983-2.253,2.309-4.212,3.979-5.878c1.675-1.674,3.634-3.003,5.887-3.987
			c2.244-0.976,4.635-1.467,7.168-1.467c1.791,0,3.491,0.25,5.097,0.759s3.072,1.208,4.41,2.106
			c1.334,0.898,2.517,1.942,3.548,3.142c1.031,1.2,1.868,2.495,2.512,3.884h-2.08c-1.286-2.339-3.073-4.255-5.373-5.757
			c-2.3-1.502-5.002-2.253-8.113-2.253c-2.3,0-4.449,0.44-6.46,1.338c-2.012,0.897-3.764,2.106-5.248,3.625
			c-1.488,1.519-2.662,3.289-3.521,5.299c-0.863,2.011-1.295,4.135-1.295,6.361s0.423,4.35,1.27,6.361
			c0.846,2.011,2.002,3.78,3.469,5.299c1.473,1.52,3.211,2.728,5.223,3.617c2.011,0.897,4.199,1.346,6.563,1.346
			c1.593,0,3.111-0.224,4.562-0.682c1.454-0.457,2.797-1.096,4.031-1.925c1.233-0.828,2.326-1.804,3.271-2.942
			c0.945-1.131,1.727-2.374,2.331-3.721H173.626z"/>
	</g>
	<g>
		<path fill="#000202" d="M194.16-27.51l16.727,37.26h-1.925l-4.717-10.392h-19.821l-4.51,10.392h-1.98L194.16-27.51z
			 M203.485-2.419l-9.325-20.732l-8.977,20.732H203.485z"/>
	</g>
	<g>
		<path fill="#000202" d="M218.741-25.741h8.165c2.87,0,5.472,0.423,7.807,1.269c2.33,0.846,4.307,2.045,5.934,3.599
			c1.618,1.553,2.866,3.426,3.746,5.602c0.88,2.184,1.32,4.609,1.32,7.276c0,2.633-0.431,5.041-1.294,7.225
			c-0.863,2.175-2.123,4.048-3.772,5.602c-1.661,1.553-3.677,2.762-6.059,3.625s-5.114,1.294-8.19,1.294h-7.656V-25.741z
			 M220.618-23.963V7.973h5.68c2.869,0,5.407-0.389,7.604-1.165c2.197-0.777,4.031-1.873,5.502-3.298
			c1.468-1.415,2.572-3.106,3.319-5.066c0.742-1.959,1.118-4.108,1.118-6.438c0-2.365-0.376-4.531-1.118-6.491
			c-0.747-1.959-1.852-3.642-3.319-5.041c-1.471-1.407-3.305-2.494-5.502-3.271c-2.196-0.777-4.734-1.166-7.604-1.166H220.618z"/>
	</g>
	<g>
		<path fill="#000202" d="M266.242-27.51l16.731,37.26h-1.93l-4.717-10.392h-19.816L251.997,9.75h-1.977L266.242-27.51z
			 M275.568-2.419l-9.326-20.732l-8.972,20.732H275.568z"/>
	</g>
	<g>
		<path fill="#000202" d="M290.828-27.009l15.358,18.712l15.411-18.712V9.75h-1.873v-31.736L306.187-5.51l-13.485-16.477V9.75
			h-1.873V-27.009z"/>
	</g>
	<g>
		<path fill="#000202" d="M333.768-25.741h1.873V9.75h-1.873V-25.741z"/>
	</g>
	<g>
		<path fill="#000202" d="M359.717-27.51l16.731,37.26h-1.925l-4.717-10.392h-19.821L345.472,9.75h-1.973L359.717-27.51z
			 M369.043-2.419l-9.326-20.732l-8.972,20.732H369.043z"/>
	</g>
	<g>
		<line fill="#000202" x1="4.552" y1="8.65" x2="42.123" y2="8.65"/>
		<rect x="4.552" y="7.687" fill="#000202" width="37.571" height="1.929"/>
	</g>
</g>
</svg>
