<?xml version="1.0" encoding="utf-8"?>
<!-- Generator: Adobe Illustrator 16.0.0, SVG Export Plug-In . SVG Version: 6.00 Build 0)  -->
<!DOCTYPE svg PUBLIC "-//W3C//DTD SVG 1.1//EN" "http://www.w3.org/Graphics/SVG/1.1/DTD/svg11.dtd">
<svg version="1.1" id="Layer_1" xmlns="http://www.w3.org/2000/svg" xmlns:xlink="http://www.w3.org/1999/xlink" x="0px" y="0px"
	 width="44px" height="44px" viewBox="0 0 44 44" enable-background="new 0 0 44 44" xml:space="preserve">
<g>
	<polygon fill="#FFFFFF" stroke="#FFFFFF" stroke-miterlimit="10" points="23.496,17.273 18.902,22 23.496,26.742 23.346,26.992 
		18.503,22 23.346,17.007 	"/>
	<g opacity="0.5">
		<path fill="#FFFFFF" d="M22.001,42.416C10.742,42.416,1.583,33.26,1.583,22c0-11.258,9.158-20.416,20.418-20.416
			c11.258,0,20.417,9.157,20.417,20.416C42.418,33.26,33.26,42.416,22.001,42.416z M22.001,2.296
			C11.137,2.296,2.296,11.136,2.296,22c0,10.865,8.841,19.705,19.705,19.705c10.862,0,19.706-8.84,19.706-19.705
			C41.707,11.136,32.863,2.296,22.001,2.296z"/>
	</g>
</g>
</svg>
