<?xml version="1.0" encoding="utf-8"?>
<!-- Generator: Adobe Illustrator 16.0.0, SVG Export Plug-In . SVG Version: 6.00 Build 0)  -->
<!DOCTYPE svg PUBLIC "-//W3C//DTD SVG 1.1//EN" "http://www.w3.org/Graphics/SVG/1.1/DTD/svg11.dtd">
<svg version="1.1" id="Layer_1" xmlns="http://www.w3.org/2000/svg" xmlns:xlink="http://www.w3.org/1999/xlink" x="0px" y="0px"
	 width="44px" height="44px" viewBox="0 0 44 44" enable-background="new 0 0 44 44" xml:space="preserve">
<g>
	<polygon fill="#FFFFFF" stroke="#FFFFFF" stroke-miterlimit="10" points="20.504,26.727 25.098,22 20.504,17.258 20.654,17.008 
		25.496,22 20.654,26.993 	"/>
	<g opacity="0.5">
		<path fill="#FFFFFF" d="M21.999,1.584c11.259,0,20.418,9.156,20.418,20.416c0,11.258-9.159,20.416-20.418,20.416
			C10.741,42.416,1.583,33.259,1.583,22C1.583,10.74,10.741,1.584,21.999,1.584z M21.999,41.704c10.864,0,19.705-8.84,19.705-19.704
			c0-10.865-8.841-19.705-19.705-19.705C11.137,2.295,2.294,11.135,2.294,22C2.294,32.864,11.137,41.704,21.999,41.704z"/>
	</g>
</g>
</svg>
